<?xml version="1.0" encoding="UTF-8" standalone="no"?>
<!-- Generator: Adobe Illustrator 17.1.0, SVG Export Plug-In . SVG Version: 6.00 Build 0)  -->

<svg
   xmlns:dc="http://purl.org/dc/elements/1.1/"
   xmlns:cc="http://creativecommons.org/ns#"
   xmlns:rdf="http://www.w3.org/1999/02/22-rdf-syntax-ns#"
   xmlns:svg="http://www.w3.org/2000/svg"
   xmlns="http://www.w3.org/2000/svg"
   xmlns:sodipodi="http://sodipodi.sourceforge.net/DTD/sodipodi-0.dtd"
   xmlns:inkscape="http://www.inkscape.org/namespaces/inkscape"
   version="1.1"
   id="Capa_1"
   x="0px"
   y="0px"
   viewBox="0 0 200.956 200.956"
   style="enable-background:new 0 0 200.956 200.956;"
   xml:space="preserve"
   sodipodi:docname="80384-cold-wind.svg"
   inkscape:version="0.92.2 (5c3e80d, 2017-08-06)"><metadata
     id="metadata39"><rdf:RDF><cc:Work
         rdf:about=""><dc:format>image/svg+xml</dc:format><dc:type
           rdf:resource="http://purl.org/dc/dcmitype/StillImage" /></cc:Work></rdf:RDF></metadata><defs
     id="defs37" /><sodipodi:namedview
     pagecolor="#ffffff"
     bordercolor="#666666"
     borderopacity="1"
     objecttolerance="10"
     gridtolerance="10"
     guidetolerance="10"
     inkscape:pageopacity="0"
     inkscape:pageshadow="2"
     inkscape:window-width="1920"
     inkscape:window-height="1018"
     id="namedview35"
     showgrid="false"
     inkscape:zoom="3.3216665"
     inkscape:cx="99.83365"
     inkscape:cy="88.838626"
     inkscape:window-x="1042"
     inkscape:window-y="502"
     inkscape:window-maximized="1"
     inkscape:current-layer="Capa_1" /><path
     d="m 136.86793,59.333892 2.20396,2.311752 c 0.76179,0.799052 0.73156,2.065829 -0.0675,2.827623 -0.79905,0.761795 -2.06582,0.731558 -2.82762,-0.06749 l -2.20396,-2.311753 c -6.18681,-6.489415 -16.49915,-6.735584 -22.98856,-0.548768 -6.48941,6.186816 -6.7363,16.49985 -0.54949,22.989256 l 76.70038,80.451768 c 0.76179,0.79905 0.73155,2.06583 -0.0675,2.82762 -0.79905,0.76179 -2.06583,0.73155 -2.82762,-0.0675 L 107.53964,87.294637 c -7.708328,-8.085351 -7.40158,-20.935479 0.68449,-28.644502 8.08534,-7.708332 20.93547,-7.401584 28.6438,0.683757 z m 18.73145,32.690497 c 0.76179,0.799052 0.73156,2.065829 -0.0675,2.827623 -5.90677,5.631338 -6.13086,15.019048 -0.49952,20.925808 l 16.73049,17.54877 c 0.76179,0.79906 0.73155,2.06583 -0.0675,2.82763 -0.79905,0.76179 -2.06583,0.73155 -2.82762,-0.0675 l -16.73049,-17.54877 c -7.15355,-7.50343 -6.86891,-19.427514 0.63452,-26.581066 0.79978,-0.762485 2.06514,-0.73228 2.82762,0.06751 z M 60.223328,31.865797 89.372982,62.441161 c 0.7618,0.799052 0.73156,2.065829 -0.0675,2.827623 -0.79905,0.761794 -2.06583,0.731548 -2.827624,-0.0675 L 57.32821,34.625916 c -0.761794,-0.799052 -0.731557,-2.065819 0.06749,-2.827613 0.799052,-0.761794 2.065138,-0.732281 2.827623,0.06749 z M 78.600615,65.70358 188.85649,181.35204 c 0.7618,0.79905 0.73156,2.06583 -0.0675,2.82762 -0.79906,0.7618 -2.06583,0.73156 -2.82763,-0.0675 L 75.705487,68.4637 C 62.323037,54.426715 40.015927,53.894216 25.978933,67.276677 11.941948,80.659127 11.409459,102.96624 24.79191,117.00323 l 3.499837,3.67101 c 0.761794,0.79905 0.731558,2.06583 -0.06749,2.82762 -0.799052,0.7618 -2.065829,0.73156 -2.827623,-0.0675 l -3.499842,-3.67101 C 6.9921247,104.12971 7.5851707,79.286216 23.218814,64.381549 38.852467,49.476891 63.695947,50.069928 78.600615,65.70358 Z M 75.085163,77.472026 170.63994,177.70036 c 0.7618,0.79905 0.73156,2.06582 -0.0675,2.82762 -0.79905,0.76179 -2.06582,0.73155 -2.82762,-0.0675 L 72.190045,80.232145 C 65.096528,72.791687 53.27283,72.509442 45.832372,79.60296 l -1.088566,1.037805 c -7.439736,7.092826 -7.722703,18.917211 -0.629185,26.357675 l 1.037114,1.08785 c 7.093517,7.44045 18.917215,7.7227 26.357674,0.62918 0.799052,-0.76179 2.065828,-0.73156 2.827623,0.0675 0.761794,0.79905 0.731557,2.06581 -0.06749,2.82761 -9.036393,8.61504 -23.397886,8.27222 -32.012919,-0.76418 l -1.037115,-1.08784 c -8.615043,-9.03639 -8.272942,-23.397198 0.764174,-32.012922 l 1.088566,-1.037806 c 9.036394,-8.615033 23.397196,-8.272932 32.01292,0.764184 z m 31.132427,46.479134 35.89127,37.64669 c 0.76179,0.79905 0.73155,2.06582 -0.0675,2.82762 -0.79905,0.76179 -2.06583,0.73155 -2.82762,-0.0675 l -35.89126,-37.64669 c -0.7618,-0.79906 -0.73156,-2.06583 0.0675,-2.82762 0.79905,-0.7618 2.06583,-0.73156 2.82762,0.0675 z"
     id="path2"
     inkscape:connector-curvature="0"
     inkscape:export-xdpi="223.8"
     inkscape:export-ydpi="223.8"
     style="fill:#c1c1c1;fill-opacity:0.75686276" /><g
     id="g4" /><g
     id="g6" /><g
     id="g8" /><g
     id="g10" /><g
     id="g12" /><g
     id="g14" /><g
     id="g16" /><g
     id="g18" /><g
     id="g20" /><g
     id="g22" /><g
     id="g24" /><g
     id="g26" /><g
     id="g28" /><g
     id="g30" /><g
     id="g32" /></svg>